<svg xmlns="http://www.w3.org/2000/svg" version="1.1" xmlns:xlink="http://www.w3.org/1999/xlink" xmlns:svgjs="http://svgjs.dev/svgjs" width="100%" height="100%" viewBox="0 0 1000 600"><rect width="1000" height="600" x="0" y="0" fill="#ffffff"/><g><circle r="166.66666666666666" cx="222.22225443522134" cy="244.44447157118097" fill="#ffffff" transform="matrix(2.25000013732911,0,0,2.25000013732911,0,-250.00002975464122)"/><path d="M210.08610758980993 176.25094522258934L210.08610758980993 176.25094522258934Q203.43371050335023 176.25094522258934 199.06727226127242 185.18930115343096Q194.70083401919462 194.15334201510836 191.97823135060491 208.43416355978633Q189.2299437511795 222.68930017362862 186.35323149757525 237.9461490900652Q183.45083431313532 253.177313075666 177.6974098059269 268.2029976145808Q171.91830036788275 283.20299722265986 163.62206770793492 291.3451202975932L163.62206770793492 291.3451202975932Q168.81042373675677 293.42559969528907 179.033026209386 297.6379283523524Q189.2299437511795 301.8502570094157 195.2915874284169 304.21327064630486L195.2915874284169 304.21327064630486Q212.01247740249133 310.73724307858583 220.30871006243916 310.73724307858583L220.30871006243916 310.73724307858583Q228.42514820653676 310.73724307858583 232.7145316561073 305.54888704976395L232.7145316561073 305.54888704976395Q233.7676138203731 304.21327064630486 234.35836722959542 302.5951200036525L234.35836722959542 302.5951200036525Q236.72138086648457 302.5951200036525 236.72138086648457 306.13964045898626L236.72138086648457 306.13964045898626Q236.72138086648457 312.20128413622365 231.17343580596219 315.8228593840647Q225.6254907454398 319.44443463190566 218.66487448895106 319.44443463190566Q211.7042582324623 319.44443463190566 202.99706667914245 316.721831963316Q194.26419019498684 313.97354436389054 188.92172458115047 311.6105307270014Q183.60494389814983 309.2475170901122 172.14946474540452 303.262928205382Q160.66830066182345 297.25265438981614 157.86864320072652 295.9427229171928L157.86864320072652 295.9427229171928Q149.72652012579317 301.2595036001934 138.11693138803338 301.2595036001934Q126.50734265027356 301.2595036001934 122.93713726410405 294.7355311679124L122.93713726410405 294.7355311679124Q121.90974003067397 292.9632709402456 121.90974003067397 290.8314216808782Q121.90974003067397 288.67388749067504 124.73508242260668 286.1053944070998Q127.53473988370362 283.5112163926889 134.64946572520688 283.5112163926889Q141.7385066358744 283.5112163926889 156.9696706214752 288.98210666070406L156.9696706214752 288.98210666070406Q168.81042373675677 275.6516275569488 175.92514957826003 234.5300532889102L175.92514957826003 234.5300532889102Q178.57069745434248 218.55402630907258 181.83268367048294 203.52834177015774Q185.09466988662345 188.52834216207873 191.23336835636812 178.973547891179Q197.37206682611279 169.44443855111513 206.82412137366944 169.44443855111513L206.82412137366944 169.44443855111513Q210.98508016906126 169.44443855111513 213.11692942842868 171.49923301797526Q215.2744636186318 173.57971241567117 215.2744636186318 175.66019181336708L215.2744636186318 175.66019181336708L215.40288827281057 177.7149862802272Q213.93884721517273 176.25094522258934 210.08610758980993 176.25094522258934ZM218.97309365898008 207.89478001223557L218.97309365898008 207.89478001223557Q218.97309365898008 208.48553342145783 217.71453204802825 208.63964300647234Q216.4559704370764 208.79375259148685 215.1203540336173 208.2029991822646Q213.78473763015822 207.61224577304228 213.78473763015822 206.5848485396122L213.78473763015822 206.5848485396122Q213.78473763015822 191.48210920819014 217.2008334313132 182.2355341073195Q220.59124430163243 172.98895900644885 226.2162441546621 172.98895900644885L226.2162441546621 172.98895900644885Q227.7059701431357 172.98895900644885 228.73336737656578 174.01635623987892Q229.76076460999585 175.06943840414476 229.76076460999585 176.8416986318116L229.76076460999585 176.8416986318116Q222.9542579385216 183.64820530328586 220.15460047742465 196.67046523701202L220.15460047742465 196.67046523701202Q218.97309365898008 201.98724592001264 218.97309365898008 207.89478001223557ZM126.04501389523001 291.65333946762223L126.04501389523001 291.65333946762223Q126.04501389523001 294.2988873437047 129.82069872808552 295.8656681246855Q133.59638356094104 297.4067639748306 139.812136823193 297.4067639748306Q146.02789008544494 297.4067639748306 152.24364334769686 293.11738052526005L152.24364334769686 293.11738052526005Q139.2213834139707 287.20984643303717 131.82412333327417 287.20984643303717L131.82412333327417 287.20984643303717Q127.25220564451035 287.20984643303717 126.19912348024452 290.4461477183419L126.19912348024452 290.4461477183419Q126.04501389523001 291.0369011275642 126.04501389523001 291.65333946762223ZM312.9028857253244 183.05745189406355L312.9028857253244 183.05745189406355Q312.9028857253244 174.01635623987892 305.81384481465693 174.01635623987892L305.81384481465693 174.01635623987892Q296.33610533626455 174.01635623987892 285.9080234169493 189.94101335804504Q275.47994149763406 205.83998554537538 268.23679100195204 225.72012201224732Q260.99364050627 245.62594340995497 256.1648735091487 261.4478608047781Q251.3617914428631 277.29546313043693 251.3617914428631 279.22183294311833Q251.3617914428631 281.14820275579973 249.30699697600298 281.14820275579973L249.30699697600298 281.14820275579973Q244.86350394141792 281.14820275579973 244.86350394141792 269.30744964051814L244.86350394141792 269.30744964051814Q244.86350394141792 240.7458065511621 251.28473665035585 213.82799903529423Q257.73165429012954 186.88450658859057 265.5655581950339 177.86909586524172L265.5655581950339 177.86909586524172Q244.40117518637436 180.82286291135318 231.25049059846944 192.81772561164928L231.25049059846944 192.81772561164928Q223.6991209327584 199.47012269810898 223.6991209327584 207.30402660301326L223.6991209327584 207.30402660301326Q223.6991209327584 211.15676622837606 226.65288797886987 211.15676622837606L226.65288797886987 211.15676622837606Q226.06213456964755 213.23724562607197 223.4165866935651 213.23724562607197Q220.74535388664694 213.23724562607197 218.7419292814583 211.15676622837606Q216.73850467626968 209.07628683068015 216.73850467626968 205.3776567903319L216.73850467626968 205.3776567903319Q216.73850467626968 196.67046523701202 227.3206961805994 189.19615036380827Q237.90288768492914 181.72183549060446 250.18028462441853 178.10026024276345Q262.45768156390784 174.47868499492245 271.03644846304894 174.47868499492245L271.03644846304894 174.47868499492245Q273.3994620999382 174.47868499492245 273.3994620999382 176.8416986318116L273.3994620999382 176.8416986318116Q264.101517137396 198.44272546467892 255.95939406246268 242.23553253963576L255.95939406246268 242.23553253963576L257.1409008809072 242.23553253963576Q265.8737773650629 215.0095058537388 277.40631131031546 194.15334201510836L277.40631131031546 194.15334201510836Q283.6220645725674 182.74923272403453 291.17343423827845 176.17389043008205Q298.6991189731537 169.59854813612964 306.5587078088937 169.59854813612964L306.5587078088937 169.59854813612964Q322.5347347887314 169.59854813612964 322.5347347887314 186.75608193441184L322.5347347887314 186.75608193441184Q322.5347347887314 197.10710906121983 315.26589936221353 209.82114982491692L315.26589936221353 209.82114982491692Q306.0963790538502 226.10539597478362 292.2008314717085 232.91190264625783L292.2008314717085 232.91190264625783Q284.803571391012 236.61053268660606 277.40631131031546 236.61053268660606L277.40631131031546 236.61053268660606Q275.6340510826486 236.61053268660606 274.65802371089 235.55745052234028Q273.70768126996717 234.5300532889102 273.3994620999382 232.6036834762288L273.3994620999382 232.6036834762288Q287.32069461291564 232.6036834762288 299.75220113741955 216.03690308716887L299.75220113741955 216.03690308716887Q309.94911867921303 202.57799932923496 312.3121323161022 188.52834216207873L312.3121323161022 188.52834216207873Q312.9028857253244 185.57457511596726 312.9028857253244 183.05745189406355Z " fill="#e02f6b" transform="matrix(2.25000013732911,0,0,2.25000013732911,0,-250.00002975464122)"/><path d="MNaN 244.44443766276106 " fill="#ffffff" transform="matrix(2.25000013732911,0,0,2.25000013732911,0,-250.00002975464122)"/></g></svg>